<svg fill="#fff"
  xmlns="http://www.w3.org/2000/svg" version="1.1"
  xmlns:xlink="http://www.w3.org/1999/xlink" width="488" height="488" viewBox="0 0 488 488">
  <svg xml:space="preserve" width="488" height="488" data-version="2" data-id="lg_bP0rZNX8zvfVAxnhvk" viewBox="0 0 560 488" x="0" y="0">
    <rect width="100%" height="100%" fill="transparent"></rect>
    <path d="M471.38 209.77q.86 3.44.86 8.6 0 4.94-.86 8.6.86 3.44.86 8.6 0 4.94-.86 8.6.86 3.44.86 8.6 0 4.94-.86 8.6.86 3.44.86 8.6 0 4.94-.86 8.6.86 3.44.86 8.6 0 4.94-.86 8.6.86 3.44.86 8.6 0 4.94-.86 8.6h-17.2q-.86-3.66-.86-8.6 0-5.16.86-8.6h-10.75q-.86-3.66-.86-8.6 0-5.16.86-8.6h-6.45q-.86-3.66-.86-8.6 0-5.16.86-8.6h-8.6q-.86-3.66-.86-8.6 0-5.16.86-8.6h-8.6q.86 3.44.86 8.6 0 4.94-.86 8.6.86 3.44.86 8.6 0 4.94-.86 8.6.86 3.44.86 8.6 0 4.94-.86 8.6.86 3.44.86 8.6 0 4.94-.86 8.6h-17.2q-.86-3.66-.86-8.6 0-5.16.86-8.6-.86-3.66-.86-8.6 0-5.16.86-8.6-.86-3.66-.86-8.6 0-5.16.86-8.6-.86-3.66-.86-8.6 0-5.16.86-8.6-.86-3.66-.86-8.6 0-5.16.86-8.6-.86-3.66-.86-8.6 0-5.16.86-8.6-.86-3.66-.86-8.6 0-5.16.86-8.6h21.5q.86 3.44.86 8.6 0 4.94-.86 8.6h6.45q.86 3.44.86 8.6 0 4.94-.86 8.6h6.45q.86 3.44.86 8.6 0 4.94-.86 8.6h8.6q.86 3.44.86 8.6 0 4.94-.86 8.6h8.6q-.86-3.66-.86-8.6 0-5.16.86-8.6-.86-3.66-.86-8.6 0-5.16.86-8.6-.86-3.66-.86-8.6 0-5.16.86-8.6-.86-3.66-.86-8.6 0-5.16.86-8.6h17.2q.86 3.44.86 8.6 0 4.94-.86 8.6m82.56 8.6q0 4.94-.86 8.6h-6.45q.86 3.44.86 8.6 0 4.94-.86 8.6h-12.9q.86 3.44.86 8.6 0 4.94-.86 8.6h-12.9q.86 3.44.86 8.6 0 4.94-.86 8.6h-10.75q.86 3.44.86 8.6 0 4.94-.86 8.6h43q.86 3.44.86 8.6 0 4.94-.86 8.6h-60.2q-.86-3.66-.86-8.6 0-5.16.86-8.6-.86-3.66-.86-8.6 0-5.16.86-8.6h10.75q-.86-3.66-.86-8.6 0-5.16.86-8.6h12.9q-.86-3.66-.86-8.6 0-5.16.86-8.6h12.9q-.86-3.66-.86-8.6 0-5.16.86-8.6h6.45q-.86-3.66-.86-8.6 0-5.16.86-8.6h-43q-.86-3.66-.86-8.6 0-5.16.86-8.6h60.2q.86 3.44.86 8.6 0 4.94-.86 8.6.86 3.44.86 8.6"></path>
    <path d="M483.287 98.53V5.139H5.564v477.723h477.723V389.47h-7.778v85.614H13.342V12.916H475.51v85.615z"></path>
  </svg>
</svg>